# xmcd CD database file
#
# Track frame offsets:
#	150
#	19121
#	33573
#	50643
#	66786
#	89503
#	109823
#	125794
#	143246
#	159328
#	170836
#	187466
#	208609
#	227126
#	244396
#	261583
#
# Disc length: 3720 seconds
#
# Revision: 0
# Processed by: cddbd v1.5.1PL2 Copyright (c) Steve Scherf et al.
# Submitted via: CDex 1.51
#
DISCID=fe0e8610
DTITLE=Joe Cocker - You Can Leave Your Hat On. The Best Of
DYEAR=2004
DGENRE=Blues
TTITLE0=You Can Leave Your Hat On
TTITLE1=One Night Of Sin
TTITLE2=Summer In The City
TTITLE3=There Goes My Baby
TTITLE4=Unchain My Heart
TTITLE5=Bird On A Wire
TTITLE6=Something
TTITLE7=Don't Let Me Be Misunderstood
TTITLE8=Fever
TTITLE9=Marie
TTITLE10=Many Rivers To Cross
TTITLE11=Darling Be Home Soon
TTITLE12=Feelin' Alright
TTITLE13=Isolation
TTITLE14=Come On In
TTITLE15=What Becomes Of The Broken Hearted
EXTD=YEAR: 2004
EXTT0=
EXTT1=
EXTT2=
EXTT3=
EXTT4=
EXTT5=
EXTT6=
EXTT7=
EXTT8=
EXTT9=
EXTT10=
EXTT11=
EXTT12=
EXTT13=
EXTT14=
EXTT15=
PLAYORDER=
